# xmcd
#
# Track frame offsets:
#	150
#	15322
#	33123
#	48436
#	63351
#	77800
#	94329
#	110214
#	129641
#	145095
#	165848
#	185293
#	202349
#	218488
#	233583
#
# Disc length: 3388 seconds
#
# Revision: 1
# Processed by: cddbd v1.5.2PL0 Copyright (c) Steve Scherf et al.
# Submitted via: audiograbber 1.83.01
#
DISCID=c40d3a0f
DTITLE=Alabama - When It All Goes South
DYEAR=2001
DGENRE=Country
TTITLE0=When It All Goes South
TTITLE1=The Woman He Loves
TTITLE2=Clear Across America Tonight
TTITLE3=Will You Marry Me (w-Jann Arden)
TTITLE4=I Can't Hide My Heart
TTITLE5=I Can't Love You Any Less
TTITLE6=Reinvent The Wheel
TTITLE7=I Write A Little
TTITLE8=Down This Road
TTITLE9=Love Remains (w-Christopher Cross)
TTITLE10=Start Living
TTITLE11=Simple As That
TTITLE12=You Only Paint The Picture Once
TTITLE13=Wonderful Waste Of Time
TTITLE14=Right Where I Am
EXTD=
EXTT0=
EXTT1=
EXTT2=
EXTT3=
EXTT4=
EXTT5=
EXTT6=
EXTT7=
EXTT8=
EXTT9=
EXTT10=
EXTT11=
EXTT12=
EXTT13=
EXTT14=
PLAYORDER=
